<svg width="1920" height="1080" viewBox="0 0 1920 1080" fill="none" xmlns="http://www.w3.org/2000/svg">
<g clip-path="url(#clip0_1_3)">
<rect width="1920" height="1080" fill="white"/>
<path d="M1607.23 0C1607.23 0 1691.97 186.253 1644.62 339.265C1597.27 492.277 1520.01 636.847 1577.33 760.84C1634.65 884.833 1634.65 1079 1634.65 1079" stroke="black"/>
<path d="M1544.93 0C1544.93 0 1591.3 187.599 1564.84 292.663C1538.38 397.728 1523.4 413.595 1490.19 514.084C1456.98 614.574 1502.42 714.006 1490.19 806.922C1477.95 899.839 1423 1080 1423 1080" stroke="black"/>
<path d="M1565.29 0C1565.29 0 1625.57 124.108 1602.9 339.579C1580.23 555.051 1429.52 553.995 1535.21 761.545C1640.9 969.095 1592.87 1080 1592.87 1080" stroke="black"/>
<path d="M1734.36 0C1734.36 0 1937.88 152.626 1771.75 339.579C1605.63 526.533 1518.6 615.257 1704.45 761.545C1890.3 907.834 1761.78 1080 1761.78 1080" stroke="black"/>
<path d="M1798.77 0C1798.77 0 1913.49 202.797 1836.3 339.579C1759.12 476.362 1656.24 566.142 1768.74 761.545C1881.24 956.949 1826.29 1080 1826.29 1080" stroke="black"/>
</g>
<defs>
<clipPath id="clip0_1_3">
<rect width="1920" height="1080" fill="white"/>
</clipPath>
</defs>
</svg>
