<svg width="1920" height="1080" viewBox="0 0 1920 1080" fill="none" xmlns="http://www.w3.org/2000/svg">
<g clip-path="url(#clip0_1_3)">
<rect width="1920" height="1080" fill="white"/>
<path d="M1494 -1V1103" stroke="black"/>
<path d="M1612.68 -1.14589C1612.68 -1.14589 1494 -1.1459 1494 1102.63" stroke="black"/>
<path d="M1526.22 -1.14589C1526.22 -1.14589 1494 -1.14587 1494 1102.63" stroke="black"/>
<path d="M1872.06 -1.14588C1872.06 -1.14588 1494 -1.14591 1494 1115.67" stroke="black"/>
<path d="M1777.74 -1.1459C1777.74 -1.1459 1494 -1.14589 1494 1102.63" stroke="black"/>
<path d="M1699.14 -1.14589C1699.14 -1.14589 1494 -1.14585 1494 1102.63" stroke="black"/>
<path d="M1565.52 -1.14589C1565.52 -1.14589 1494 -1.14592 1494 1102.63" stroke="black"/>
<path d="M1920 -1.14588C1753.64 437.864 1494 -1.14591 1494 1123.01" stroke="black"/>
<path d="M1826.47 -1.14589C1696.63 434.999 1494 7.41364 1494 1115.67" stroke="black"/>
<path d="M1738.44 -1.14589C1642.98 434.999 1494 -1.14593 1494 1115.67" stroke="black"/>
<path d="M1659.84 -1.14589C1595.08 429.906 1494 29.0164 1494 1102.63" stroke="black"/>
</g>
<defs>
<clipPath id="clip0_1_3">
<rect width="1920" height="1080" fill="white"/>
</clipPath>
</defs>
</svg>
